<svg 
  aria-hidden="true" 
  focusable="false" 
  data-prefix="fab" 
  data-icon="linkedin" 
  class="svg-inline--fa fa-linkedin fa-w-14" 
  role="img" 
  xmlns="http://www.w3.org/2000/svg" 
  viewBox="0 0 448 512">
  <path 
    fill="currentColor" 
    d="M100.28 448H7.4V148.9h92.88zm-46.44-333.4C24.12 114.6 0 90.5 0 59.6 0 28.1 24.12 0 54.06 0 84 0 108 28.1 108 59.6c0 30.9-24.06 55-54.16 55zM447.7 448h-92.2v-170.6c0-40.4-14.48-68-50.62-68-27.6 0-44 18.6-51.2 36.5-2.64 6.4-3.28 15.2-3.28 24.1V448h-92.36V148.9H255v40.8c12.24-18.8 34.16-45.6 83.16-45.6 60.64 0 106.5 39.4 106.5 124.3V448z">
  </path>
</svg>
