<svg
  xmlns="http://www.w3.org/2000/svg"
  aria-hidden="true"
  className="svg-inline--fa fa-envelope fa-w-16"
  data-icon="envelope"
  data-prefix="fas"
  viewBox="0 0 512 512"
  {...props}
>
  <path
    fill="currentColor"
    d="M502.3 190.8l-192-160c-18.8-15.1-46.8-12.5-62.1 6.3l-122.7 154-122.7-154c-15.3-18.8-43.3-21.4-62.1-6.3l-192 160c-19.2 16.1-22.5 45.7-8.7 67.2 13.9 20.2 40.1 23.2 59.7 9.7l146.7-118.7 103.2 125.2c13.9 16.7 40.6 16.7 54.6 0l103.2-125.2 146.7 118.7c19.6 13.5 45.8 10.5 59.7-9.7 13.8-21.5 10.5-51.1-8.7-67.2z"
  />
</svg>
